Coordinates
version=1
nRows=18
nColumns=22
inDegrees=yes

Units are S.I. units (second, meters, Newtons, ...)
If the header above contains a line with 'inDegrees', this indicates whether rotational values are in degrees (yes) or radians (no).

endheader
time	pelvis_tilt	pelvis_list	pelvis_rotation	pelvis_tx	pelvis_ty	pelvis_tz	hip_flexion_r	hip_adduction_r	hip_rotation_r	knee_angle_r	ankle_angle_r	subtalar_angle_r	hip_flexion_l	hip_adduction_l	hip_rotation_l	knee_angle_l	ankle_angle_l	subtalar_angle_l	lumbar_extension	lumbar_bending	lumbar_rotation
      3.61000000	      0.81162568	      4.45279916	      9.10321874	      0.09357065	      1.06628593	     -0.44768946	     27.07580705	     -2.99850965	    -11.10957302	    -41.13390367	     10.81377425	     -4.97249265	     -5.04746910	      2.83185615	     -6.27863541	    -12.75704158	     15.62328703	     -0.86937407	     -7.32521320	     -4.23639071	     -9.40036491
      3.62000000	      0.97071195	      4.33661805	      8.96069666	      0.10165790	      1.06550464	     -0.44923780	     26.84736764	     -3.25738538	    -13.17860055	    -38.65055533	     10.85332319	     -5.01578000	     -5.74848588	      2.72780271	     -6.41521349	    -12.64651207	     15.95510726	     -0.79213380	     -7.42038060	     -4.02918169	     -9.53052118
      3.63000000	      1.12814695	      4.20730039	      8.82910534	      0.10985926	      1.06466243	     -0.45062250	     26.54193294	     -3.46346140	    -15.41217811	    -36.09343649	     10.88135605	     -4.98905642	     -6.44065024	      2.59628129	     -6.56014765	    -12.55655068	     16.28698349	     -0.67528177	     -7.50726350	     -3.81353704	     -9.64914373
      3.64000000	      1.28041735	      4.06396227	      8.70769880	      0.11816821	      1.06375629	     -0.45182171	     26.17331075	     -3.60142310	    -17.80120310	    -33.48355016	     10.90219121	     -4.88658719	     -7.11528980	      2.43531981	     -6.70801599	    -12.49620386	     16.61625102	     -0.51977836	     -7.58436792	     -3.59199963	     -9.75283405
      3.65000000	      1.41793861	      3.90441109	      8.59801928	      0.12656451	      1.06277244	     -0.45281403	     25.76480882	     -3.65472584	    -20.31417398	    -30.84564645	     10.92978125	     -4.71299019	     -7.75403178	      2.24061164	     -6.86049975	    -12.47853523	     16.94089898	     -0.32559640	     -7.64520629	     -3.36486879	     -9.84886107
      3.66000000	      1.53318187	      3.73159361	      8.49820278	      0.13503041	      1.06170241	     -0.45358361	     25.34070000	     -3.61368129	    -22.89610358	    -28.21246498	     10.97443635	     -4.47447417	     -8.34502701	      2.01541599	     -7.01334792	    -12.51027348	     17.26469388	     -0.09191161	     -7.68392867	     -3.13879656	     -9.93359372
      3.67000000	      1.61098918	      3.54173448	      8.40468837	      0.14353938	      1.06052769	     -0.45411563	     24.93293191	     -3.46232615	    -25.45194719	    -25.61324923	     11.05025022	     -4.17716865	     -8.86196507	      1.75647853	     -7.16386328	    -12.60764251	     17.58417954	      0.18508552	     -7.68686104	     -2.91093205	    -10.00329530
      3.68000000	      1.64212631	      3.34407582	      8.31711721	      0.15206781	      1.05924049	     -0.45442576	     24.56762193	     -3.21202395	    -27.88473309	    -23.09091577	     11.15850171	     -3.83377889	     -9.28896067	      1.47523432	     -7.30665066	    -12.78271916	     17.89807335	      0.49565404	     -7.64670685	     -2.69036726	    -10.05872781
      3.69000000	      1.62659759	      3.14385326	      8.23368394	      0.16062661	      1.05784936	     -0.45453997	     24.25482668	     -2.87720149	    -30.09631689	    -20.68894534	     11.29337890	     -3.46969661	     -9.62886517	      1.17985912	     -7.42812701	    -13.03247570	     18.20503982	      0.83247417	     -7.56133080	     -2.48044264	    -10.10162526
      3.70000000	      1.57597214	      2.94512918	      8.15742562	      0.16921802	      1.05638590	     -0.45448663	     23.98115800	     -2.47483195	    -31.99293665	    -18.44026841	     11.44806872	     -3.11927151	     -9.88798524	      0.87280911	     -7.51987781	    -13.36999356	     18.48771419	      1.19791584	     -7.44402143	     -2.28008920	    -10.13393130
      3.71000000	      1.50428856	      2.75697125	      8.08787439	      0.17789716	      1.05488262	     -0.45434585	     23.73341954	     -2.04456999	    -33.52328699	    -16.40577404	     11.60192214	     -2.83611825	    -10.09551120	      0.56858421	     -7.57144535	    -13.77545633	     18.73775247	      1.57998743	     -7.30132337	     -2.08767095	    -10.15855768
      3.72000000	      1.38328999	      2.57877065	      8.03657147	      0.18668073	      1.05330413	     -0.45417565	     23.54733084	     -1.63026880	    -34.69398577	    -14.65669587	     11.70570681	     -2.71312580	    -10.21145708	      0.27234932	     -7.56494336	    -14.26971907	     18.94804582	      1.84176545	     -7.09506939	     -1.90226369	    -10.17689051
      3.73000000	      1.40545934	      2.42911848	      7.98979143	      0.19574888	      1.05197292	     -0.45400608	     23.18957011	     -1.24359598	    -35.52575116	    -13.21591784	     11.85236275	     -2.63852000	    -10.50894835	     -0.01781571	     -7.50275695	    -14.74042856	     19.07823573	      2.38759203	     -7.03195174	     -1.70743883	    -10.22112223
      3.74000000	      1.41767271	      2.29302045	      7.96908926	      0.20503247	      1.05064946	     -0.45389640	     22.85737553	     -0.93933701	    -36.10181715	    -12.18466321	     11.93513507	     -2.77287567	    -10.77374138	     -0.29541833	     -7.36002962	    -15.27715879	     19.14192175	      2.82786667	     -6.93341235	     -1.50927639	    -10.26588859
      3.75000000	      1.48444775	      2.17339545	      7.97271167	      0.21459523	      1.04945415	     -0.45385458	     22.47702939	     -0.72649433	    -36.49940467	    -11.58040052	     11.97046381	     -3.06916758	    -11.09374735	     -0.56692163	     -7.15054622	    -15.84606375	     19.13213725	      3.28402188	     -6.86816611	     -1.29815272	    -10.34013021
      3.76000000	      1.57741435	      2.04690485	      8.01965051	      0.22444922	      1.04837511	     -0.45390939	     22.08756909	     -0.60606018	    -36.86688014	    -11.41409402	     11.91282957	     -3.45417832	    -11.43593542	     -0.85031694	     -6.82223777	    -16.44360300	     19.03182551	      3.70059885	     -6.79551683	     -1.05058600	    -10.44552426
      3.77000000	      1.77711143	      1.93775754	      8.03346861	      0.23464240	      1.04753665	     -0.45387445	     21.59044353	     -0.53725908	    -37.14633609	    -11.60751298	     11.79469794	     -4.09907700	    -11.90025373	     -1.13591906	     -6.54047858	    -17.05800461	     18.83623460	      4.36500375	     -6.81068349	     -0.79914000	    -10.53461720
      3.78000000	      1.97853279	      1.79024748	      8.09521238	      0.24511913	      1.04684117	     -0.45385118	     21.10382356	     -0.51564391	    -37.59666537	    -12.11535535	     11.52425621	     -4.75875569	    -12.34269783	     -1.47072464	     -6.15103791	    -17.71863497	     18.56708980	      4.99186851	     -6.78566904	     -0.49170004	    -10.67119617
